# xmcd CD database file
#
# Track frame offsets:
#	150
#	11543
#	24164
#	37775
#	51241
#	63939
#	77219
#	90729
#	105003
#	120801
#	135025
#	148267
#	163104
#	176411
#	191992
#	205797
#	220485
#	233074
#	247361
#	259908
#	272411
#
# Disc length: 3819 seconds
#
# Revision: 1
# Processed by: cddbd v1.5.2PL0 Copyright (c) Steve Scherf et al.
# Submitted via: CDex 1.70beta2
#
DISCID=170ee915
DTITLE=John Lee Williamson - The Ultimate Jazz Archive Set 13
DYEAR=2005
DGENRE=Blues
TTITLE0=Worried Be Blues
TTITLE1=Black Gal Blues
TTITLE2=Frigidaire Blues
TTITLE3=Suzanna Blues
TTITLE4=Early In The Morning
TTITLE5=Sugar Mama Blues
TTITLE6=Skin Woman
TTITLE7=My Little Cornelia
TTITLE8=Decoration Blues
TTITLE9=You Can Lead Me
TTITLE10=Miss Luisa Blues
TTITLE11=Sunnyland
TTITLE12=I'm Tired Trucking My blues Away
TTITLE13=Beauty Parlour
TTITLE14=My Baby I've Been Your Slave
TTITLE15=Doddin' My Love Around
TTITLE16=Little Low Woman Blues
TTITLE17=Sugar Mama Blues No 2
TTITLE18=Good Gal Blues
TTITLE19=I'm Not Pleasing You
TTITLE20=Honey Bee Blues
EXTD=YEAR: 2005
EXTT0=
EXTT1=
EXTT2=
EXTT3=
EXTT4=
EXTT5=
EXTT6=
EXTT7=
EXTT8=
EXTT9=
EXTT10=
EXTT11=
EXTT12=
EXTT13=
EXTT14=
EXTT15=
EXTT16=
EXTT17=
EXTT18=
EXTT19=
EXTT20=
PLAYORDER=
